<svg xmlns="http://www.w3.org/2000/svg" width="220" height="220" viewBox="0 0 220 220"><rect width="220" height="220" fill="#FBF7F4"></rect><rect x="20" y="20" width="180" height="180" fill="none" stroke="#C41E3A" stroke-width="1" stroke-dasharray="4 4" opacity="0.4"></rect><g transform="translate(50,50)"><rect width="120" height="120" rx="28" fill="#C41E3A"></rect><g fill="#FBF7F4"><path d="M 39 72 L 39 44 Q 39 30 53 30 L 67 30 Q 81 30 81 44 L 81 72 L 83 72 L 83 76 L 37 76 L 37 72 Z"></path><rect x="42" y="76" width="4" height="16"></rect><rect x="74" y="76" width="4" height="16"></rect><rect x="56" y="38" width="8" height="22" rx="2" fill="#C41E3A"></rect></g></g><g stroke="#1A0F10" stroke-width="1" opacity="0.5"><line x1="20" y1="10" x2="50" y2="10"></line><line x1="20" y1="7" x2="20" y2="13"></line><line x1="50" y1="7" x2="50" y2="13"></line></g><text x="35" y="6" text-anchor="middle" font-family="IBM Plex Mono, monospace" font-size="8" fill="#1A0F10">¼x</text></svg>